<!-- Generated by IcoMoon.io -->
<svg version="1.1" xmlns="http://www.w3.org/2000/svg" width="64" height="64" viewBox="0 0 64 64">
<title>dog</title>
<path fill="#c21d51" d="M40.518 51.727c-3.66 1.257-6.152-1.213-7.191-2.562 0.017-0.169 0.003-0.339-0.043-0.5 3.21-0.616 5.487-3.319 5.487-6.766 0-0.736-0.597-1.333-1.333-1.333h-11.131c-0.736 0-1.333 0.597-1.333 1.333 0 3.406 2.226 6.085 5.377 6.742-0.050 0.165-0.068 0.34-0.052 0.515-0.353 0.456-0.874 1.043-1.547 1.572-1.725 1.356-3.623 1.693-5.642 0.999-0.697-0.239-1.455 0.132-1.694 0.828s0.132 1.455 0.828 1.694c0.971 0.333 1.933 0.499 2.877 0.499 1.865 0 3.654-0.647 5.279-1.924 0.552-0.434 1.023-0.895 1.413-1.327 0.39 0.432 0.862 0.893 1.413 1.327 1.625 1.278 3.415 1.924 5.279 1.924 0.944 0 1.907-0.166 2.878-0.499 0.697-0.239 1.067-0.998 0.828-1.694s-0.997-1.067-1.694-0.828zM31.874 46.13c-2.019 0-3.545-1.141-4.052-2.898h8.1c-0.507 1.757-2.031 2.898-4.048 2.898z"></path>
<path fill="#c21d51" d="M63.784 48.423c-0.226-9.709-1.388-17.62-3.456-23.514-1.661-4.736-3.91-8.2-6.684-10.298-3.422-2.588-6.59-2.287-7.507-2.127-1.561-1.698-3.42-3.125-5.494-4.202l0.583-1.264c0.208-0.45 0.148-0.979-0.154-1.372s-0.798-0.586-1.287-0.5l-6.744 1.182 0.453-0.905c0.258-0.515 0.156-1.137-0.253-1.543s-1.032-0.503-1.545-0.241l-9.511 4.849c-0.026 0.013-0.051 0.027-0.076 0.042l-1.278 0.761c-0.017 0.010-0.034 0.021-0.051 0.032-1.356 0.893-2.576 1.929-3.646 3.078-1.371-0.088-3.99 0.102-6.778 2.211-2.774 2.098-5.023 5.563-6.684 10.298-2.068 5.894-3.23 13.805-3.456 23.514-0.050 0.339-0.209 1.512-0.216 2.822-0.011 2.362 0.47 3.91 1.471 4.73 0.318 0.26 0.893 0.602 1.72 0.602 0.374 0 0.801-0.070 1.278-0.249 2.843-1.068 5.048-6.89 5.461-8.047 0.033-0.093 0.056-0.191 0.068-0.289l0.205-1.696c1.13 2.828 2.846 5.426 5.091 7.645 4.283 4.234 9.947 6.565 15.947 6.565 5.999 0 11.659-2.332 15.939-6.566 2.906-2.875 4.928-6.387 5.932-10.212l0.906 4.374c0.013 0.061 0.029 0.12 0.050 0.178 0.413 1.156 2.619 6.979 5.462 8.047 0.477 0.179 0.903 0.249 1.277 0.249 0.827 0 1.402-0.342 1.72-0.602 1.002-0.82 1.483-2.368 1.471-4.73-0.006-1.31-0.165-2.483-0.215-2.822zM8.64 36.989l-1.271 10.533c-1.001 2.741-2.73 5.894-3.837 6.309-0.211 0.079-0.323 0.083-0.357 0.083-0.007 0-0.011-0-0.011 0-0.020-0.017-0.489-0.452-0.497-2.535-0.005-1.355 0.194-2.615 0.196-2.627 0.010-0.060 0.015-0.122 0.017-0.183 0.473-20.869 5.153-28.792 8.997-31.764 1.11-0.859 2.164-1.312 3.052-1.543-1.866 2.958-2.894 6.38-2.894 9.927v0.402c-2.726 3.551-3.312 7.671-3.394 11.398zM51.175 37.582l-0 0.487c0 10.902-8.941 19.77-19.932 19.77-10.999 0-19.947-8.869-19.947-19.77 0-0.295 0.003-0.594 0.009-0.895l0.584-4.839c0.011-0.092 0.012-0.183 0.005-0.272 0.446-1.814 1.21-3.584 2.505-5.161 0.196-0.239 0.303-0.538 0.303-0.847v-0.867c0-5.42 2.811-10.511 7.52-13.623l1.214-0.723 5.925-3.021c-0.078 0.37 0.003 0.761 0.235 1.072 0.301 0.404 0.804 0.604 1.3 0.517l6.844-1.2-0.336 0.73c-0.308 0.669-0.016 1.461 0.652 1.769 0.434 0.2 0.921 0.147 1.293-0.098 5.646 2.9 9.152 8.483 9.152 14.576v2.334c0 0.33 0.122 0.648 0.344 0.893 0.872 0.966 1.419 1.995 1.761 3.088 0.002 0.079 0.010 0.16 0.027 0.24l0.423 2.042c0.125 1.197 0.123 2.462 0.121 3.795zM60.846 53.91c-0.001 0-0.109 0.023-0.378-0.078-1.115-0.419-2.859-3.61-3.857-6.362l-2.927-14.126c-0.248-2.185-0.886-4.332-2.519-6.315v-1.839c0-3.55-1.031-7.029-2.982-10.059-0.009-0.014-0.019-0.028-0.028-0.042 1.027 0.124 2.444 0.539 3.967 1.717 3.843 2.972 8.524 10.896 8.997 31.764 0.001 0.061 0.007 0.122 0.017 0.183 0.002 0.012 0.199 1.243 0.196 2.597-0.004 2.139-0.491 2.56-0.487 2.56z"></path>
<path fill="#c21d51" d="M22.211 30.396c1.627 0.049 3.204 1.021 4.688 2.888 0.263 0.331 0.652 0.504 1.045 0.504 0.291 0 0.584-0.095 0.829-0.29 0.576-0.458 0.672-1.297 0.214-1.873-2.003-2.519-4.264-3.83-6.721-3.895-3.849-0.105-6.624 2.975-6.74 3.106-0.487 0.55-0.436 1.388 0.112 1.877s1.39 0.441 1.881-0.105c0.020-0.023 2.090-2.286 4.693-2.212z"></path>
<path fill="#c21d51" d="M39.946 27.73c-3.854-0.105-6.623 2.975-6.739 3.106-0.488 0.551-0.437 1.394 0.114 1.882s1.394 0.437 1.882-0.114c0.020-0.023 2.090-2.279 4.672-2.208 1.633 0.043 3.216 1.015 4.706 2.889 0.263 0.331 0.652 0.504 1.044 0.504 0.291 0 0.584-0.095 0.829-0.29 0.576-0.458 0.672-1.297 0.214-1.873-2.003-2.52-4.265-3.83-6.722-3.895z"></path>
</svg>
